# xmcd
#
# Track frame offsets:
#	150
#	16299
#	31437
#	44079
#	56821
#	74044
#	87554
#	103649
#	123221
#	139073
#	153406
#	168707
#	183426
#
# Disc length: 2663 seconds
# Revision: 0
# Processed by: cddbd v1.5.2PL0 Copyright (c) Steve Scherf et al.
# Submitted via: dBpowerAMP V12.0
#
DISCID=bf0a650d
DTITLE=Michael Ballew and Ray Benson - Through Thick and Thin
DYEAR=2014
DGENRE=Country
TTITLE0=Merlene
TTITLE1=Me Too
TTITLE2=Racin' Down the Highway
TTITLE3=I Had a Dad
TTITLE4=I Am America
TTITLE5=Don't Call This Love
TTITLE6=Mama Bahama
TTITLE7=Through Thick and Thin
TTITLE8=Pull My Chain
TTITLE9=A Thing Or Two
TTITLE10=Old Pickers Like Me
TTITLE11=Hot Spot
TTITLE12=North of Amarillo
EXTD=
EXTT0=
EXTT1=
EXTT2=
EXTT3=
EXTT4=
EXTT5=
EXTT6=
EXTT7=
EXTT8=
EXTT9=
EXTT10=
EXTT11=
EXTT12=
PLAYORDER=
